<svg viewBox="0 0 600 400" xmlns="http://www.w3.org/2000/svg">
<g transform="translate(72, 364)">
<g>
<g>
<path d="M0,-135.43039 L0,-135.43039 L2.3529413,-135.49982 L4.7058825,-135.63815 L7.0588236,-135.84436 L9.411765,-136.11688 L11.764706,-136.4537 L14.117647,-136.85231 L16.470589,-137.30971 L18.82353,-137.82248 L21.17647,-138.38681 L23.529411,-138.99849 L25.882353,-139.65295 L28.235294,-140.34535 L30.588236,-141.07051 L32.941177,-141.82306 L35.294117,-142.59743 L37.64706,-143.3879 L40,-144.1886 L42.35294,-144.99365 L44.705883,-145.79715 L47.058823,-146.59317 L49.411766,-147.37592 L51.764706,-148.13966 L54.117645,-148.87885 L56.47059,-149.58809 L58.82353,-150.26228 L61.17647,-150.89655 L63.52941,-151.48631 L65.882355,-152.02733 L68.23529,-152.51575 L70.588234,-152.94804 L72.94118,-153.32115 L75.29412,-153.6324 L77.64706,-153.8796 L80,-154.06097 L82.35294,-154.17523 L84.70588,-154.22157 L87.05882,-154.19966 L89.411766,-153.89484 L91.76471,-153.30923 L94.117645,-152.44704 L96.47059,-151.31439 L98.82353,-149.9194 L101.17647,-148.27211 L103.52941,-146.38448 L105.882355,-144.27023 L108.23529,-141.94492 L110.588234,-139.42566 L112.94118,-136.73119 L115.29412,-133.88158 L117.64706,-130.89816 L120,-127.80328 L122.35294,-124.62017 L124.70588,-121.37264 L127.05882,-118.08492 L129.41176,-114.78141 L131.76471,-111.486404 L134.11765,-108.2239 L136.47058,-105.01737 L138.82353,-101.88956 L141.17647,-98.862274 L143.52942,-95.95627 L145.88235,-93.19106 L148.23529,-90.58486 L150.58824,-88.15446 L152.94118,-85.91516 L155.29411,-83.880806 L157.64706,-82.06366 L160,-80.47449 L162.35294,-79.122505 L164.70589,-78.01543 L167.05882,-77.159485 L169.41176,-76.559425 L171.76471,-76.21856 L174.11765,-76.13874 L176.47058,-76.32042 L178.82353,-76.977425 L181.17647,-78.106155 L183.52942,-79.70035 L185.88235,-81.75101 L188.23529,-84.24629 L190.58824,-87.17144 L192.94118,-90.508644 L195.29411,-94.23696 L197.64706,-98.33228 L200,-102.76731 L202.35294,-107.51161 L204.70589,-112.531815 L207.05882,-117.79176 L209.41176,-123.25292 L211.76471,-128.87471 L214.11765,-134.61507 L216.47058,-140.43095 L218.82353,-146.27896 L221.17647,-152.116 L223.52942,-157.89978 L225.88235,-163.5895 L228.23529,-169.14624 L230.58824,-174.53354 L232.94118,-179.71756 L235.29411,-184.66745 L237.64706,-189.3554 L240,-193.75665 L242.35294,-197.8496 L244.70589,-201.61545 L247.05882,-205.03822 L249.41176,-208.10446 L251.76471,-210.80302 L254.11765,-213.12479 L256.47058,-215.06248 L258.82352,-216.61043 L261.17648,-217.76436 L263.52942,-218.52122 L265.88235,-218.87912 L268.2353,-218.83714 L270.58823,-218.18057 L272.94116,-216.91103 L275.29413,-215.03183 L277.64706,-212.54814 L280,-209.46732 L282.35294,-205.79927 L284.70587,-201.557 L287.05884,-196.75708 L289.41177,-191.42009 L291.7647,-185.57126 L294.11765,-179.24074 L296.47058,-172.464 L298.82352,-165.28195 L301.17648,-157.74084 L303.52942,-149.89192 L305.88235,-141.79092 L308.2353,-133.49713 L310.58823,-125.072395 L312.94116,-116.57987 L315.29413,-108.08265 L317.64706,-99.64242 L320,-91.318146 L322.35294,-83.164986 L324.70587,-75.2333 L327.05884,-67.568 L329.41177,-60.208168 L331.7647,-53.18685 L334.11765,-46.53121 L336.47058,-40.26281 L338.82352,-34.39804 L341.17648,-28.948708 L343.52942,-23.922632 L345.88235,-19.324316 L348.2353,-15.15556 L350.58823,-11.416089 L352.94116,-8.104109 L355.29413,-5.2168117 L357.64706,-2.9656568 L360,-1.3474149 L362.35294,-0.35944414 L364.70587,-0 L367.05884,-0.26842314 L369.41177,-1.1652071 L371.7647,-2.691948 L374.11765,-4.851174 L376.47058,-7.6460533 L378.82352,-11.079973 L381.17648,-15.155987 L383.52942,-19.876122 L385.88235,-25.240555 L388.2353,-31.246655 L390.58823,-37.887924 L392.94116,-45.15286 L395.29413,-53.0238 L397.64706,-61.475834 L400,-70.47586 L402.35294,-79.98189 L404.70587,-89.94277 L407.05884,-100.29836 L409.41177,-110.98028 L411.7647,-121.91319 L414.11765,-133.01674 L416.47058,-144.20778 L418.82352,-155.40303 L421.17648,-166.5217 L423.52942,-177.48795 L425.88235,-188.23311 L428.2353,-198.69739 L430.58823,-208.83087 L432.94116,-218.59416 L435.29413,-227.95828 L437.64706,-236.9043 L440,-245.42249 L442.35294,-253.51135 L444.70587,-261.17648 L447.05884,-268.42944 L449.41177,-275.28665 L451.7647,-281.76834 L454.11765,-287.89774 L456.47058,-293.7003 L458.82352,-299.20297 L461.17648,-304.4339 L463.52942,-309.4218 L465.88235,-314.19592 L468.2353,-318.78555 L470.58823,-323.22025 L472.94116,-327.52945 L475.29413,-331.74277 L477.64706,-335.8897 L480,-340" fill="none" stroke="burlywood" stroke-linejoin="round" stroke-width="2"/>
</g>
<g>
<circle cx="0" cy="-135.4303922269792" fill="" r="5"/>
<circle cx="2.3529411764705883" cy="-135.49981797405243" fill="" r="5"/>
<circle cx="4.705882352941177" cy="-135.63815009737442" fill="" r="5"/>
<circle cx="7.0588235294117645" cy="-135.844353849079" fill="" r="5"/>
<circle cx="9.411764705882353" cy="-136.11688706504836" fill="" r="5"/>
<circle cx="11.764705882352942" cy="-136.4537120387371" fill="" r="5"/>
<circle cx="14.117647058823529" cy="-136.8523112260791" fill="" r="5"/>
<circle cx="16.470588235294116" cy="-137.3097066705144" fill="" r="5"/>
<circle cx="18.823529411764707" cy="-137.8224830070381" fill="" r="5"/>
<circle cx="21.176470588235293" cy="-138.38681387301187" fill="" r="5"/>
<circle cx="23.529411764705884" cy="-138.9984915215986" fill="" r="5"/>
<circle cx="25.88235294117647" cy="-139.6529594015923" fill="" r="5"/>
<circle cx="28.235294117647058" cy="-140.3453474358294" fill="" r="5"/>
<circle cx="30.58823529411765" cy="-141.0705097001379" fill="" r="5"/>
<circle cx="32.94117647058823" cy="-141.823064176884" fill="" r="5"/>
<circle cx="35.294117647058826" cy="-142.59743423262057" fill="" r="5"/>
<circle cx="37.64705882352941" cy="-143.3878914491253" fill="" r="5"/>
<circle cx="40" cy="-144.18859942214274" fill="" r="5"/>
<circle cx="42.35294117647059" cy="-144.99365813315464" fill="" r="5"/>
<circle cx="44.705882352941174" cy="-145.7971484970287" fill="" r="5"/>
<circle cx="47.05882352941177" cy="-146.59317669270067" fill="" r="5"/>
<circle cx="49.411764705882355" cy="-147.375917895106" fill="" r="5"/>
<circle cx="51.76470588235294" cy="-148.13965904407" fill="" r="5"/>
<circle cx="54.11764705882353" cy="-148.87884030917522" fill="" r="5"/>
<circle cx="56.470588235294116" cy="-149.58809493788218" fill="" r="5"/>
<circle cx="58.8235294117647" cy="-150.2622872062926" fill="" r="5"/>
<circle cx="61.1764705882353" cy="-150.89654822668197" fill="" r="5"/>
<circle cx="63.529411764705884" cy="-151.48630940196338" fill="" r="5"/>
<circle cx="65.88235294117646" cy="-152.02733335324731" fill="" r="5"/>
<circle cx="68.23529411764706" cy="-152.51574218136759" fill="" r="5"/>
<circle cx="70.58823529411765" cy="-152.94804295550512" fill="" r="5"/>
<circle cx="72.94117647058823" cy="-153.3211503509208" fill="" r="5"/>
<circle cx="75.29411764705883" cy="-153.63240638257543" fill="" r="5"/>
<circle cx="77.6470588235294" cy="-153.87959720163235" fill="" r="5"/>
<circle cx="80" cy="-154.0609669373227" fill="" r="5"/>
<circle cx="82.3529411764706" cy="-154.17522857752624" fill="" r="5"/>
<circle cx="84.70588235294117" cy="-154.2215718880524" fill="" r="5"/>
<circle cx="87.05882352941177" cy="-154.1996683736203" fill="" r="5"/>
<circle cx="89.41176470588235" cy="-153.89483731247407" fill="" r="5"/>
<circle cx="91.76470588235294" cy="-153.30924100893355" fill="" r="5"/>
<circle cx="94.11764705882354" cy="-152.44704214087872" fill="" r="5"/>
<circle cx="96.47058823529412" cy="-151.31439011048303" fill="" r="5"/>
<circle cx="98.82352941176471" cy="-149.919399027933" fill="" r="5"/>
<circle cx="101.17647058823529" cy="-148.2721153940686" fill="" r="5"/>
<circle cx="103.52941176470588" cy="-146.38447316818642" fill="" r="5"/>
<circle cx="105.88235294117646" cy="-144.27023372335265" fill="" r="5"/>
<circle cx="108.23529411764706" cy="-141.944908234126" fill="" r="5"/>
<circle cx="110.58823529411765" cy="-139.42566032801835" fill="" r="5"/>
<circle cx="112.94117647058823" cy="-136.73118736316968" fill="" r="5"/>
<circle cx="115.29411764705883" cy="-133.88157945213098" fill="" r="5"/>
<circle cx="117.6470588235294" cy="-130.89815629626474" fill="" r="5"/>
<circle cx="120" cy="-127.80328296804593" fill="" r="5"/>
<circle cx="122.3529411764706" cy="-124.62016690362529" fill="" r="5"/>
<circle cx="124.70588235294117" cy="-121.3726394584054" fill="" r="5"/>
<circle cx="127.05882352941177" cy="-118.08492634382002" fill="" r="5"/>
<circle cx="129.41176470588235" cy="-114.78141201967323" fill="" r="5"/>
<circle cx="131.76470588235293" cy="-111.48640359421526" fill="" r="5"/>
<circle cx="134.11764705882354" cy="-108.22389993781019" fill="" r="5"/>
<circle cx="136.47058823529412" cy="-105.01737152852232" fill="" r="5"/>
<circle cx="138.8235294117647" cy="-101.88955603283397" fill="" r="5"/>
<circle cx="141.1764705882353" cy="-98.86227382444463" fill="" r="5"/>
<circle cx="143.52941176470588" cy="-95.95626662455986" fill="" r="5"/>
<circle cx="145.88235294117646" cy="-93.19106128960068" fill="" r="5"/>
<circle cx="148.23529411764707" cy="-90.58485956439374" fill="" r="5"/>
<circle cx="150.58823529411765" cy="-88.1544534452523" fill="" r="5"/>
<circle cx="152.94117647058823" cy="-85.9151647318463" fill="" r="5"/>
<circle cx="155.2941176470588" cy="-83.8808064471095" fill="" r="5"/>
<circle cx="157.64705882352942" cy="-82.06366310933127" fill="" r="5"/>
<circle cx="160" cy="-80.47448636942906" fill="" r="5"/>
<circle cx="162.35294117647058" cy="-79.12250228119777" fill="" r="5"/>
<circle cx="164.7058823529412" cy="-78.01542644102574" fill="" r="5"/>
<circle cx="167.05882352941177" cy="-77.15948339410473" fill="" r="5"/>
<circle cx="169.41176470588235" cy="-76.55942702856194" fill="" r="5"/>
<circle cx="171.76470588235293" cy="-76.21855913686939" fill="" r="5"/>
<circle cx="174.11764705882354" cy="-76.13874388533206" fill="" r="5"/>
<circle cx="176.47058823529412" cy="-76.3204165694412" fill="" r="5"/>
<circle cx="178.8235294117647" cy="-76.97742169138107" fill="" r="5"/>
<circle cx="181.1764705882353" cy="-78.10615396141222" fill="" r="5"/>
<circle cx="183.52941176470588" cy="-79.70034808296963" fill="" r="5"/>
<circle cx="185.88235294117646" cy="-81.75100394035212" fill="" r="5"/>
<circle cx="188.23529411764707" cy="-84.24629072176687" fill="" r="5"/>
<circle cx="190.58823529411765" cy="-87.1714404561951" fill="" r="5"/>
<circle cx="192.94117647058823" cy="-90.50864401679729" fill="" r="5"/>
<circle cx="195.2941176470588" cy="-94.23696468096831" fill="" r="5"/>
<circle cx="197.64705882352942" cy="-98.33228560107838" fill="" r="5"/>
<circle cx="200" cy="-102.76730777366527" fill="" r="5"/>
<circle cx="202.35294117647058" cy="-107.51161405969098" fill="" r="5"/>
<circle cx="204.7058823529412" cy="-112.53181233476886" fill="" r="5"/>
<circle cx="207.05882352941177" cy="-117.79176689159871" fill="" r="5"/>
<circle cx="209.41176470588235" cy="-123.2529219078572" fill="" r="5"/>
<circle cx="211.76470588235293" cy="-128.87471446597507" fill="" r="5"/>
<circle cx="214.11764705882354" cy="-134.61506779935937" fill="" r="5"/>
<circle cx="216.47058823529412" cy="-140.4309488256071" fill="" r="5"/>
<circle cx="218.8235294117647" cy="-146.27896835540423" fill="" r="5"/>
<circle cx="221.1764705882353" cy="-152.11599832581143" fill="" r="5"/>
<circle cx="223.52941176470588" cy="-157.89977851409472" fill="" r="5"/>
<circle cx="225.88235294117646" cy="-163.5894856894059" fill="" r="5"/>
<circle cx="228.23529411764707" cy="-169.14624098432375" fill="" r="5"/>
<circle cx="230.58823529411765" cy="-174.53353604355127" fill="" r="5"/>
<circle cx="232.94117647058823" cy="-179.71756462773394" fill="" r="5"/>
<circle cx="235.2941176470588" cy="-184.66745308870196" fill="" r="5"/>
<circle cx="237.64705882352942" cy="-189.35538976037037" fill="" r="5"/>
<circle cx="240" cy="-193.75665920613218" fill="" r="5"/>
<circle cx="242.35294117647058" cy="-197.84959198821767" fill="" r="5"/>
<circle cx="244.7058823529412" cy="-201.61544394686496" fill="" r="5"/>
<circle cx="247.05882352941177" cy="-205.03822086709903" fill="" r="5"/>
<circle cx="249.41176470588235" cy="-208.10446499880354" fill="" r="5"/>
<circle cx="251.76470588235293" cy="-210.80301941774042" fill="" r="5"/>
<circle cx="254.11764705882354" cy="-213.1247849567922" fill="" r="5"/>
<circle cx="256.47058823529414" cy="-215.06248268474647" fill="" r="5"/>
<circle cx="258.8235294117647" cy="-216.61043291759236" fill="" r="5"/>
<circle cx="261.1764705882353" cy="-217.76435971377228" fill="" r="5"/>
<circle cx="263.52941176470586" cy="-218.5212278676538" fill="" r="5"/>
<circle cx="265.88235294117646" cy="-218.87911765218544" fill="" r="5"/>
<circle cx="268.2352941176471" cy="-218.83714099735582" fill="" r="5"/>
<circle cx="270.5882352941176" cy="-218.1805654375766" fill="" r="5"/>
<circle cx="272.94117647058823" cy="-216.9110326087318" fill="" r="5"/>
<circle cx="275.29411764705884" cy="-215.03183712330056" fill="" r="5"/>
<circle cx="277.6470588235294" cy="-212.54814517613943" fill="" r="5"/>
<circle cx="280" cy="-209.46730933174936" fill="" r="5"/>
<circle cx="282.3529411764706" cy="-205.79926732686516" fill="" r="5"/>
<circle cx="284.70588235294116" cy="-201.55700723021283" fill="" r="5"/>
<circle cx="287.05882352941177" cy="-196.7570749109762" fill="" r="5"/>
<circle cx="289.4117647058824" cy="-191.4200927515819" fill="" r="5"/>
<circle cx="291.7647058823529" cy="-185.57125149964529" fill="" r="5"/>
<circle cx="294.11764705882354" cy="-179.24073104217695" fill="" r="5"/>
<circle cx="296.47058823529414" cy="-172.46400196658215" fill="" r="5"/>
<circle cx="298.8235294117647" cy="-165.28195948100088" fill="" r="5"/>
<circle cx="301.1764705882353" cy="-157.7408459490195" fill="" r="5"/>
<circle cx="303.52941176470586" cy="-149.8919288624621" fill="" r="5"/>
<circle cx="305.88235294117646" cy="-141.790917624758" fill="" r="5"/>
<circle cx="308.2352941176471" cy="-133.49712402055903" fill="" r="5"/>
<circle cx="310.5882352941176" cy="-125.07239546915783" fill="" r="5"/>
<circle cx="312.94117647058823" cy="-116.57987387854902" fill="" r="5"/>
<circle cx="315.29411764705884" cy="-108.08265248285781" fill="" r="5"/>
<circle cx="317.6470588235294" cy="-99.64241516031734" fill="" r="5"/>
<circle cx="320" cy="-91.31814524072077" fill="" r="5"/>
<circle cx="322.3529411764706" cy="-83.16498326807977" fill="" r="5"/>
<circle cx="324.70588235294116" cy="-75.23329695396802" fill="" r="5"/>
<circle cx="327.05882352941177" cy="-67.56800447437853" fill="" r="5"/>
<circle cx="329.4117647058824" cy="-60.20816792498389" fill="" r="5"/>
<circle cx="331.7647058823529" cy="-53.18685069489012" fill="" r="5"/>
<circle cx="334.11764705882354" cy="-46.53121353523184" fill="" r="5"/>
<circle cx="336.47058823529414" cy="-40.262810827005964" fill="" r="5"/>
<circle cx="338.8235294117647" cy="-34.3980414269714" fill="" r="5"/>
<circle cx="341.1764705882353" cy="-28.948706931600945" fill="" r="5"/>
<circle cx="343.52941176470586" cy="-23.92263305077035" fill="" r="5"/>
<circle cx="345.88235294117646" cy="-19.324315569289087" fill="" r="5"/>
<circle cx="348.2352941176471" cy="-15.155559686299778" fill="" r="5"/>
<circle cx="350.5882352941176" cy="-11.41608919244794" fill="" r="5"/>
<circle cx="352.94117647058823" cy="-8.104109131492232" fill="" r="5"/>
<circle cx="355.29411764705884" cy="-5.216811782324147" fill="" r="5"/>
<circle cx="357.6470588235294" cy="-2.965656721716741" fill="" r="5"/>
<circle cx="360" cy="-1.3474149081390503" fill="" r="5"/>
<circle cx="362.3529411764706" cy="-0.35944415346539976" fill="" r="5"/>
<circle cx="364.70588235294116" cy="-0" fill="" r="5"/>
<circle cx="367.05882352941177" cy="-0.2684231533107562" fill="" r="5"/>
<circle cx="369.4117647058824" cy="-1.1652071972935931" fill="" r="5"/>
<circle cx="371.7647058823529" cy="-2.6919480510397054" fill="" r="5"/>
<circle cx="374.11764705882354" cy="-4.8511740723438335" fill="" r="5"/>
<circle cx="376.47058823529414" cy="-7.646053372511334" fill="" r="5"/>
<circle cx="378.8235294117647" cy="-11.079973301771313" fill="" r="5"/>
<circle cx="381.1764705882353" cy="-15.155986768664587" fill="" r="5"/>
<circle cx="383.52941176470586" cy="-19.8761217174638" fill="" r="5"/>
<circle cx="385.88235294117646" cy="-25.240554409050972" fill="" r="5"/>
<circle cx="388.2352941176471" cy="-31.246654824273506" fill="" r="5"/>
<circle cx="390.5882352941176" cy="-37.88792407060492" fill="" r="5"/>
<circle cx="392.94117647058823" cy="-45.15285927334895" fill="" r="5"/>
<circle cx="395.29411764705884" cy="-53.02380052699531" fill="" r="5"/>
<circle cx="397.6470588235294" cy="-61.47583548951663" fill="" r="5"/>
<circle cx="400" cy="-70.47585723691041" fill="" r="5"/>
<circle cx="402.3529411764706" cy="-79.98188584000587" fill="" r="5"/>
<circle cx="404.70588235294116" cy="-89.94276864178993" fill="" r="5"/>
<circle cx="407.05882352941177" cy="-100.29836333275946" fill="" r="5"/>
<circle cx="409.4117647058824" cy="-110.98027818457454" fill="" r="5"/>
<circle cx="411.7647058823529" cy="-121.91319511227357" fill="" r="5"/>
<circle cx="414.11764705882354" cy="-133.01673818660933" fill="" r="5"/>
<circle cx="416.47058823529414" cy="-144.20778222550237" fill="" r="5"/>
<circle cx="418.8235294117647" cy="-155.40303580896514" fill="" r="5"/>
<circle cx="421.1764705882353" cy="-166.52169322038642" fill="" r="5"/>
<circle cx="423.52941176470586" cy="-177.4879394724893" fill="" r="5"/>
<circle cx="425.88235294117646" cy="-188.23311417981373" fill="" r="5"/>
<circle cx="428.2352941176471" cy="-198.6973886161337" fill="" r="5"/>
<circle cx="430.5882352941176" cy="-208.83087508528192" fill="" r="5"/>
<circle cx="432.94117647058823" cy="-218.59415557542818" fill="" r="5"/>
<circle cx="435.29411764705884" cy="-227.95827570616672" fill="" r="5"/>
<circle cx="437.6470588235294" cy="-236.90429235646462" fill="" r="5"/>
<circle cx="440" cy="-245.42248618916855" fill="" r="5"/>
<circle cx="442.3529411764706" cy="-253.51135501774718" fill="" r="5"/>
<circle cx="444.70588235294116" cy="-261.17649482449275" fill="" r="5"/>
<circle cx="447.05882352941177" cy="-268.4294575004367" fill="" r="5"/>
<circle cx="449.4117647058824" cy="-275.28665295505715" fill="" r="5"/>
<circle cx="451.7647058823529" cy="-281.76834192560295" fill="" r="5"/>
<circle cx="454.11764705882354" cy="-287.89774701690334" fill="" r="5"/>
<circle cx="456.47058823529414" cy="-293.7002943995456" fill="" r="5"/>
<circle cx="458.8235294117647" cy="-299.2029874375615" fill="" r="5"/>
<circle cx="461.1764705882353" cy="-304.43390597386207" fill="" r="5"/>
<circle cx="463.52941176470586" cy="-309.4218204487444" fill="" r="5"/>
<circle cx="465.88235294117646" cy="-314.1959077559373" fill="" r="5"/>
<circle cx="468.2352941176471" cy="-318.7855550857253" fill="" r="5"/>
<circle cx="470.5882352941176" cy="-323.22023840306156" fill="" r="5"/>
<circle cx="472.94117647058823" cy="-327.52946321959894" fill="" r="5"/>
<circle cx="475.29411764705884" cy="-331.74275661689904" fill="" r="5"/>
<circle cx="477.6470588235294" cy="-335.889700834871" fill="" r="5"/>
<circle cx="480" cy="-340.00000000000006" fill="" r="5"/>
</g>
</g>
<g>
<g>
<line stroke="black" stroke-width="1" x1="0" x2="0" y1="0" y2="10"/>
<line stroke="black" stroke-width="1" x1="94.11764705882354" x2="94.11764705882354" y1="0" y2="10"/>
<line stroke="black" stroke-width="1" x1="188.23529411764707" x2="188.23529411764707" y1="0" y2="10"/>
<line stroke="black" stroke-width="1" x1="282.3529411764706" x2="282.3529411764706" y1="0" y2="10"/>
<line stroke="black" stroke-width="1" x1="376.47058823529414" x2="376.47058823529414" y1="0" y2="10"/>
<line stroke="black" stroke-width="1" x1="470.5882352941176" x2="470.5882352941176" y1="0" y2="10"/>
</g>
<line stroke="black" stroke-width="1" x1="0" x2="480" y1="0" y2="0"/>
<g>
<text font-size="12" text-anchor="middle" x="0" y="20">
1
</text>
<text font-size="12" text-anchor="middle" x="94.11764705882354" y="20">
41
</text>
<text font-size="12" text-anchor="middle" x="188.23529411764707" y="20">
81
</text>
<text font-size="12" text-anchor="middle" x="282.3529411764706" y="20">
121
</text>
<text font-size="12" text-anchor="middle" x="376.47058823529414" y="20">
161
</text>
<text font-size="12" text-anchor="middle" x="470.5882352941176" y="20">
201
</text>
</g>
<text font-size="12" text-anchor="middle" x="240" y="30">
Time
</text>
</g>
<g>
<g>
<line stroke="black" stroke-width="1" x1="0" x2="-10" y1="-70.97960084480454" y2="-70.97960084480454"/>
<line stroke="black" stroke-width="1" x1="0" x2="-10" y1="-156.91398935437073" y2="-156.91398935437073"/>
<line stroke="black" stroke-width="1" x1="0" x2="-10" y1="-242.84837786393692" y2="-242.84837786393692"/>
<line stroke="black" stroke-width="1" x1="0" x2="-10" y1="-328.7827663735031" y2="-328.7827663735031"/>
</g>
<line stroke="black" stroke-width="1" x1="0" x2="0" y1="0" y2="-340"/>
<g>
<text dominant-baseline="middle" font-size="12" text-anchor="end" x="-15" y="-70.97960084480454">
-0.8
</text>
<text dominant-baseline="middle" font-size="12" text-anchor="end" x="-15" y="-156.91398935437073">
-0.4
</text>
<text dominant-baseline="middle" font-size="12" text-anchor="end" x="-15" y="-242.84837786393692">
0
</text>
<text dominant-baseline="middle" font-size="12" text-anchor="end" x="-15" y="-328.7827663735031">
0.4
</text>
</g>
<text font-size="12" text-anchor="middle" transform="rotate(-90 -48 -170)" x="-48" y="-182">
Position
</text>
</g>
</g>
</svg>