<svg viewBox="0 0 600 400" xmlns="http://www.w3.org/2000/svg">
<g transform="translate(72, 364)">
<g>
<g>
<path d="M0,-146.70859 L0,-146.70859 L2.3529413,-147.90726 L4.7058825,-149.09697 L7.0588236,-150.2688 L9.411765,-151.414 L11.764706,-152.52403 L14.117647,-153.59059 L16.470589,-154.60574 L18.82353,-155.56192 L21.17647,-156.45204 L23.529411,-157.2695 L25.882353,-158.00829 L28.235294,-158.66301 L30.588236,-159.22887 L32.941177,-159.7018 L35.294117,-160.07846 L37.64706,-160.35622 L40,-160.5332 L42.35294,-160.60832 L44.705883,-160.58124 L47.058823,-160.4524 L49.411766,-160.22299 L51.764706,-159.89494 L54.117645,-159.47092 L56.47059,-158.95421 L58.82353,-158.34885 L61.17647,-157.65941 L63.52941,-156.8911 L65.882355,-156.04962 L68.23529,-155.1412 L70.588234,-154.17247 L72.94118,-153.15047 L75.29412,-152.08258 L77.64706,-150.97646 L80,-149.84003 L82.35294,-148.68138 L84.70588,-147.50873 L87.05882,-146.33041 L89.411766,-141.44554 L91.76471,-136.59799 L94.117645,-131.82231 L96.47059,-127.15281 L98.82353,-122.623405 L101.17647,-118.26745 L103.52941,-114.117546 L105.882355,-110.20524 L108.23529,-106.56074 L110.588234,-103.21257 L112.94118,-100.187225 L115.29412,-97.50875 L117.64706,-95.198364 L120,-93.274124 L122.35294,-91.75057 L124.70588,-90.63847 L127.05882,-89.94465 L129.41176,-89.67184 L131.76471,-89.818695 L134.11765,-90.379906 L136.47058,-91.346344 L138.82353,-92.70536 L141.17647,-94.44112 L143.52942,-96.53499 L145.88235,-98.965996 L148.23529,-101.71127 L150.58824,-104.74647 L152.94118,-108.0462 L155.29411,-111.58442 L157.64706,-115.33474 L160,-119.2707 L162.35294,-123.36594 L164.70589,-127.5944 L167.05882,-131.93033 L169.41176,-136.34833 L171.76471,-140.82335 L174.11765,-145.33054 L176.47058,-149.84526 L178.82353,-158.0521 L181.17647,-166.1967 L183.52942,-174.23311 L185.88235,-182.11415 L188.23529,-189.79091 L190.58824,-197.2127 L192.94118,-204.32701 L195.29411,-211.07983 L197.64706,-217.41626 L200,-223.28137 L202.35294,-228.6213 L204.70589,-233.38472 L207.05882,-237.52422 L209.41176,-240.99805 L211.76471,-243.77153 L214.11765,-245.81854 L216.47058,-247.12256 L218.82353,-247.67744 L221.17647,-247.4877 L223.52942,-246.56833 L225.88235,-244.9441 L228.23529,-242.64864 L230.58824,-239.72282 L232.94118,-236.21332 L235.29411,-232.17078 L237.64706,-227.64806 L240,-222.69861 L242.35294,-217.37503 L244.70589,-211.72783 L247.05882,-205.80447 L249.41176,-199.64876 L251.76471,-193.30043 L254.11765,-186.79498 L256.47058,-180.16386 L258.82352,-173.4347 L261.17648,-166.63168 L263.52942,-159.77628 L265.88235,-152.88773 L268.2353,-145.98384 L270.58823,-135.3725 L272.94116,-124.7895 L275.29413,-114.26338 L277.64706,-103.82646 L280,-93.51649 L282.35294,-83.37809 L284.70587,-73.46394 L287.05884,-63.835464 L289.41177,-54.56304 L291.7647,-45.72555 L294.11765,-37.409126 L296.47058,-29.705122 L298.82352,-22.707193 L301.17648,-16.50766 L303.52942,-11.193284 L305.88235,-6.840758 L308.2353,-3.512278 L310.58823,-1.2516236 L312.94116,-0.081144385 L315.29413,-0 L317.64706,-0.9838573 L320,-2.98609 L322.35294,-5.9403505 L324.70587,-9.764234 L327.05884,-14.36365 L329.41177,-19.637493 L331.7647,-25.482191 L334.11765,-31.795834 L336.47058,-38.48162 L338.82352,-45.450542 L341.17648,-52.623226 L343.52942,-59.931023 L345.88235,-67.316444 L348.2353,-74.733025 L350.58823,-82.144844 L352.94116,-89.52567 L355.29413,-96.858025 L357.64706,-107.841324 L360,-118.768875 L362.35294,-129.6508 L364.70587,-140.50261 L367.05884,-151.34305 L369.41177,-162.192 L371.7647,-173.0685 L374.11765,-183.98866 L376.47058,-194.96352 L378.82352,-205.99686 L381.17648,-217.08292 L383.52942,-228.20398 L385.88235,-239.3281 L388.2353,-250.40678 L390.58823,-261.3733 L392.94116,-272.14117 L395.29413,-282.60416 L397.64706,-292.63702 L400,-302.09827 L402.35294,-310.83472 L404.70587,-318.688 L407.05884,-325.5029 L409.41177,-331.13696 L411.7647,-335.47064 L414.11765,-338.41656 L416.47058,-339.9273 L418.82352,-340 L421.17648,-338.67752 L423.52942,-336.04608 L425.88235,-332.2292 L428.2353,-327.3793 L430.58823,-321.6681 L432.94116,-315.2763 L435.29413,-308.3846 L437.64706,-301.16586 L440,-293.7793 L442.35294,-286.3668 L444.70587,-279.0509 L447.05884,-271.93445 L449.41177,-265.10135 L451.7647,-258.61804 L454.11765,-252.5357 L456.47058,-246.89235 L458.82352,-241.71523 L461.17648,-237.0229 L463.52942,-232.82732 L465.88235,-229.1355 L468.2353,-225.95105 L470.58823,-223.27553 L472.94116,-221.10942 L475.29413,-219.45313 L477.64706,-218.30757 L480,-217.67487" fill="none" stroke="burlywood" stroke-linejoin="round" stroke-width="2"/>
</g>
<g>
<circle cx="0" cy="-146.70859186533445" fill="" r="5"/>
<circle cx="2.3529411764705883" cy="-147.90726059691315" fill="" r="5"/>
<circle cx="4.705882352941177" cy="-149.09696214277608" fill="" r="5"/>
<circle cx="7.0588235294117645" cy="-150.26879827178047" fill="" r="5"/>
<circle cx="9.411764705882353" cy="-151.4140081996282" fill="" r="5"/>
<circle cx="11.764705882352942" cy="-152.5240361492751" fill="" r="5"/>
<circle cx="14.117647058823529" cy="-153.59059749640616" fill="" r="5"/>
<circle cx="16.470588235294116" cy="-154.60574299908637" fill="" r="5"/>
<circle cx="18.823529411764707" cy="-155.56192059128733" fill="" r="5"/>
<circle cx="21.176470588235293" cy="-156.4520342022778" fill="" r="5"/>
<circle cx="23.529411764705884" cy="-157.26949905143658" fill="" r="5"/>
<circle cx="25.88235294117647" cy="-158.008292864494" fill="" r="5"/>
<circle cx="28.235294117647058" cy="-158.66300246582102" fill="" r="5"/>
<circle cx="30.58823529411765" cy="-159.2288652248729" fill="" r="5"/>
<circle cx="32.94117647058823" cy="-159.70180487510257" fill="" r="5"/>
<circle cx="35.294117647058826" cy="-160.07846128140048" fill="" r="5"/>
<circle cx="37.64705882352941" cy="-160.3562138070208" fill="" r="5"/>
<circle cx="40" cy="-160.53319802144813" fill="" r="5"/>
<circle cx="42.35294117647059" cy="-160.6083155940073" fill="" r="5"/>
<circle cx="44.705882352941174" cy="-160.58123733048626" fill="" r="5"/>
<circle cx="47.05882352941177" cy="-160.45239942710444" fill="" r="5"/>
<circle cx="49.411764705882355" cy="-160.2229931328003" fill="" r="5"/>
<circle cx="51.76470588235294" cy="-159.8949481218555" fill="" r="5"/>
<circle cx="54.11764705882353" cy="-159.47090997932582" fill="" r="5"/>
<circle cx="56.470588235294116" cy="-158.95421228712704" fill="" r="5"/>
<circle cx="58.8235294117647" cy="-158.34884386525783" fill="" r="5"/>
<circle cx="61.1764705882353" cy="-157.659411767895" fill="" r="5"/>
<circle cx="63.529411764705884" cy="-156.8911006565319" fill="" r="5"/>
<circle cx="65.88235294117646" cy="-156.04962917178133" fill="" r="5"/>
<circle cx="68.23529411764706" cy="-155.14120390301204" fill="" r="5"/>
<circle cx="70.58823529411765" cy="-154.17247151288296" fill="" r="5"/>
<circle cx="72.94117647058823" cy="-153.15046951533074" fill="" r="5"/>
<circle cx="75.29411764705883" cy="-152.08257613468632" fill="" r="5"/>
<circle cx="77.6470588235294" cy="-150.97645959492766" fill="" r="5"/>
<circle cx="80" cy="-149.84002710646075" fill="" r="5"/>
<circle cx="82.3529411764706" cy="-148.68137373812198" fill="" r="5"/>
<circle cx="84.70588235294117" cy="-147.50873128892528" fill="" r="5"/>
<circle cx="87.05882352941177" cy="-146.3304172115752" fill="" r="5"/>
<circle cx="89.41176470588235" cy="-141.44553778506074" fill="" r="5"/>
<circle cx="91.76470588235294" cy="-136.59799157692254" fill="" r="5"/>
<circle cx="94.11764705882354" cy="-131.82231599351226" fill="" r="5"/>
<circle cx="96.47058823529412" cy="-127.15281278006492" fill="" r="5"/>
<circle cx="98.82352941176471" cy="-122.62340356020289" fill="" r="5"/>
<circle cx="101.17647058823529" cy="-118.26745198287806" fill="" r="5"/>
<circle cx="103.52941176470588" cy="-114.117545921169" fill="" r="5"/>
<circle cx="105.88235294117646" cy="-110.20523654791369" fill="" r="5"/>
<circle cx="108.23529411764706" cy="-106.5607350228606" fill="" r="5"/>
<circle cx="110.58823529411765" cy="-103.21257173666528" fill="" r="5"/>
<circle cx="112.94117647058823" cy="-100.18722728224711" fill="" r="5"/>
<circle cx="115.29411764705883" cy="-97.5087482307086" fill="" r="5"/>
<circle cx="117.6470588235294" cy="-95.1983640210283" fill="" r="5"/>
<circle cx="120" cy="-93.27412348549457" fill="" r="5"/>
<circle cx="122.3529411764706" cy="-91.75057043589622" fill="" r="5"/>
<circle cx="124.70588235294117" cy="-90.63847713655598" fill="" r="5"/>
<circle cx="127.05882352941177" cy="-89.9446523329836" fill="" r="5"/>
<circle cx="129.41176470588235" cy="-89.67183689172653" fill="" r="5"/>
<circle cx="131.76470588235293" cy="-89.81869530120835" fill="" r="5"/>
<circle cx="134.11764705882354" cy="-90.37990568688568" fill="" r="5"/>
<circle cx="136.47058823529412" cy="-91.34634510295638" fill="" r="5"/>
<circle cx="138.8235294117647" cy="-92.70536120693367" fill="" r="5"/>
<circle cx="141.1764705882353" cy="-94.44111650015357" fill="" r="5"/>
<circle cx="143.52941176470588" cy="-96.53498753135723" fill="" r="5"/>
<circle cx="145.88235294117646" cy="-98.9659990789343" fill="" r="5"/>
<circle cx="148.23529411764707" cy="-101.71127245736876" fill="" r="5"/>
<circle cx="150.58823529411765" cy="-104.74646768425343" fill="" r="5"/>
<circle cx="152.94117647058823" cy="-108.04620111130308" fill="" r="5"/>
<circle cx="155.2941176470588" cy="-111.58442298647591" fill="" r="5"/>
<circle cx="157.64705882352942" cy="-115.33474294595682" fill="" r="5"/>
<circle cx="160" cy="-119.27069530135647" fill="" r="5"/>
<circle cx="162.35294117647058" cy="-123.36593988861544" fill="" r="5"/>
<circle cx="164.7058823529412" cy="-127.59439793811399" fill="" r="5"/>
<circle cx="167.05882352941177" cy="-131.9303257377291" fill="" r="5"/>
<circle cx="169.41176470588235" cy="-136.34833168978443" fill="" r="5"/>
<circle cx="171.76470588235293" cy="-140.82334466821183" fill="" r="5"/>
<circle cx="174.11764705882354" cy="-145.33054336958065" fill="" r="5"/>
<circle cx="176.47058823529412" cy="-149.84525765581995" fill="" r="5"/>
<circle cx="178.8235294117647" cy="-158.05209956033062" fill="" r="5"/>
<circle cx="181.1764705882353" cy="-166.19669441297464" fill="" r="5"/>
<circle cx="183.52941176470588" cy="-174.23311592354952" fill="" r="5"/>
<circle cx="185.88235294117646" cy="-182.1141461315255" fill="" r="5"/>
<circle cx="188.23529411764707" cy="-189.79091171487647" fill="" r="5"/>
<circle cx="190.58823529411765" cy="-197.21270121463692" fill="" r="5"/>
<circle cx="192.94117647058823" cy="-204.3270076208888" fill="" r="5"/>
<circle cx="195.2941176470588" cy="-211.079831496718" fill="" r="5"/>
<circle cx="197.64705882352942" cy="-217.4162664624279" fill="" r="5"/>
<circle cx="200" cy="-223.2813710754525" fill="" r="5"/>
<circle cx="202.35294117647058" cy="-228.621309233583" fill="" r="5"/>
<circle cx="204.7058823529412" cy="-233.38471639174986" fill="" r="5"/>
<circle cx="207.05882352941177" cy="-237.52422327861768" fill="" r="5"/>
<circle cx="209.41176470588235" cy="-240.9980454506983" fill="" r="5"/>
<circle cx="211.76470588235293" cy="-243.7715294485204" fill="" r="5"/>
<circle cx="214.11764705882354" cy="-245.81853794457086" fill="" r="5"/>
<circle cx="216.47058823529412" cy="-247.122559688955" fill="" r="5"/>
<circle cx="218.8235294117647" cy="-247.67744632551887" fill="" r="5"/>
<circle cx="221.1764705882353" cy="-247.48770632602535" fill="" r="5"/>
<circle cx="223.52941176470588" cy="-246.56832336673233" fill="" r="5"/>
<circle cx="225.88235294117646" cy="-244.94410779990488" fill="" r="5"/>
<circle cx="228.23529411764707" cy="-242.64862999015244" fill="" r="5"/>
<circle cx="230.58823529411765" cy="-239.72281796318816" fill="" r="5"/>
<circle cx="232.94117647058823" cy="-236.21332504325738" fill="" r="5"/>
<circle cx="235.2941176470588" cy="-232.17078381990976" fill="" r="5"/>
<circle cx="237.64705882352942" cy="-227.64806087847376" fill="" r="5"/>
<circle cx="240" cy="-222.69861410190475" fill="" r="5"/>
<circle cx="242.35294117647058" cy="-217.37503411711728" fill="" r="5"/>
<circle cx="244.7058823529412" cy="-211.727827248163" fill="" r="5"/>
<circle cx="247.05882352941177" cy="-205.8044726071664" fill="" r="5"/>
<circle cx="249.41176470588235" cy="-199.64876347317556" fill="" r="5"/>
<circle cx="251.76470588235293" cy="-193.30042470553292" fill="" r="5"/>
<circle cx="254.11764705882354" cy="-186.79498446521143" fill="" r="5"/>
<circle cx="256.47058823529414" cy="-180.16386999578066" fill="" r="5"/>
<circle cx="258.8235294117647" cy="-173.43469306514456" fill="" r="5"/>
<circle cx="261.1764705882353" cy="-166.63168995820922" fill="" r="5"/>
<circle cx="263.52941176470586" cy="-159.77628257420355" fill="" r="5"/>
<circle cx="265.88235294117646" cy="-152.88773018439036" fill="" r="5"/>
<circle cx="268.2352941176471" cy="-145.9838448410439" fill="" r="5"/>
<circle cx="270.5882352941176" cy="-135.37250076651333" fill="" r="5"/>
<circle cx="272.94117647058823" cy="-124.7895003207652" fill="" r="5"/>
<circle cx="275.29411764705884" cy="-114.26338293537559" fill="" r="5"/>
<circle cx="277.6470588235294" cy="-103.82646237532903" fill="" r="5"/>
<circle cx="280" cy="-93.5164873583354" fill="" r="5"/>
<circle cx="282.3529411764706" cy="-83.3780921195783" fill="" r="5"/>
<circle cx="284.70588235294116" cy="-73.46394209994618" fill="" r="5"/>
<circle cx="287.05882352941177" cy="-63.83546442614672" fill="" r="5"/>
<circle cx="289.4117647058824" cy="-54.563042049228294" fill="" r="5"/>
<circle cx="291.7647058823529" cy="-45.72554997935756" fill="" r="5"/>
<circle cx="294.11764705882354" cy="-37.40912809464608" fill="" r="5"/>
<circle cx="296.47058823529414" cy="-29.705122868101647" fill="" r="5"/>
<circle cx="298.8235294117647" cy="-22.70719297146396" fill="" r="5"/>
<circle cx="301.1764705882353" cy="-16.507659601216417" fill="" r="5"/>
<circle cx="303.52941176470586" cy="-11.193284000047088" fill="" r="5"/>
<circle cx="305.88235294117646" cy="-6.840757896517697" fill="" r="5"/>
<circle cx="308.2352941176471" cy="-3.5122781255576037" fill="" r="5"/>
<circle cx="310.5882352941176" cy="-1.2516236321079746" fill="" r="5"/>
<circle cx="312.94117647058823" cy="-0.08114438280202371" fill="" r="5"/>
<circle cx="315.29411764705884" cy="-0" fill="" r="5"/>
<circle cx="317.6470588235294" cy="-0.9838572800914396" fill="" r="5"/>
<circle cx="320" cy="-2.98608996250737" fill="" r="5"/>
<circle cx="322.3529411764706" cy="-5.940350512615042" fill="" r="5"/>
<circle cx="324.70588235294116" cy="-9.764233695386991" fill="" r="5"/>
<circle cx="327.05882352941177" cy="-14.363650672351119" fill="" r="5"/>
<circle cx="329.4117647058824" cy="-19.637493415642364" fill="" r="5"/>
<circle cx="331.7647058823529" cy="-25.482191387031634" fill="" r="5"/>
<circle cx="334.11764705882354" cy="-31.795832718539195" fill="" r="5"/>
<circle cx="336.47058823529414" cy="-38.48162074804714" fill="" r="5"/>
<circle cx="338.8235294117647" cy="-45.450542883549694" fill="" r="5"/>
<circle cx="341.1764705882353" cy="-52.623225227202035" fill="" r="5"/>
<circle cx="343.52941176470586" cy="-59.93102219512477" fill="" r="5"/>
<circle cx="345.88235294117646" cy="-67.3164410382472" fill="" r="5"/>
<circle cx="348.2352941176471" cy="-74.7330275080475" fill="" r="5"/>
<circle cx="350.5882352941176" cy="-82.14484509122308" fill="" r="5"/>
<circle cx="352.94117647058823" cy="-89.52567189631203" fill="" r="5"/>
<circle cx="355.29411764705884" cy="-96.85802205344778" fill="" r="5"/>
<circle cx="357.6470588235294" cy="-107.84132295085116" fill="" r="5"/>
<circle cx="360" cy="-118.76887290167757" fill="" r="5"/>
<circle cx="362.3529411764706" cy="-129.6508042106783" fill="" r="5"/>
<circle cx="364.70588235294116" cy="-140.5026166231361" fill="" r="5"/>
<circle cx="367.05882352941177" cy="-151.34304600186434" fill="" r="5"/>
<circle cx="369.4117647058824" cy="-162.1919973426519" fill="" r="5"/>
<circle cx="371.7647058823529" cy="-173.06850298992273" fill="" r="5"/>
<circle cx="374.11764705882354" cy="-183.9886619439074" fill="" r="5"/>
<circle cx="376.47058823529414" cy="-194.9635198549791" fill="" r="5"/>
<circle cx="378.8235294117647" cy="-205.9968619880239" fill="" r="5"/>
<circle cx="381.1764705882353" cy="-217.0829140473222" fill="" r="5"/>
<circle cx="383.52941176470586" cy="-228.20397953451234" fill="" r="5"/>
<circle cx="385.88235294117646" cy="-239.3280882501403" fill="" r="5"/>
<circle cx="388.2352941176471" cy="-250.40678842708465" fill="" r="5"/>
<circle cx="390.5882352941176" cy="-261.3732821159495" fill="" r="5"/>
<circle cx="392.94117647058823" cy="-272.1411731710231" fill="" r="5"/>
<circle cx="395.29411764705884" cy="-282.60415751021344" fill="" r="5"/>
<circle cx="397.6470588235294" cy="-292.6370183480023" fill="" r="5"/>
<circle cx="400" cy="-302.09827230688063" fill="" r="5"/>
<circle cx="402.3529411764706" cy="-310.8347227084017" fill="" r="5"/>
<circle cx="404.70588235294116" cy="-318.68799801878447" fill="" r="5"/>
<circle cx="407.05882352941177" cy="-325.5028875877758" fill="" r="5"/>
<circle cx="409.4117647058824" cy="-331.13696125322105" fill="" r="5"/>
<circle cx="411.7647058823529" cy="-335.470632154968" fill="" r="5"/>
<circle cx="414.11764705882354" cy="-338.41657419211174" fill="" r="5"/>
<circle cx="416.47058823529414" cy="-339.92732019945566" fill="" r="5"/>
<circle cx="418.8235294117647" cy="-340" fill="" r="5"/>
<circle cx="421.1764705882353" cy="-338.677530451521" fill="" r="5"/>
<circle cx="423.52941176470586" cy="-336.04607888318776" fill="" r="5"/>
<circle cx="425.88235294117646" cy="-332.22917291762343" fill="" r="5"/>
<circle cx="428.2352941176471" cy="-327.37929537594243" fill="" r="5"/>
<circle cx="430.5882352941176" cy="-321.668082897193" fill="" r="5"/>
<circle cx="432.94117647058823" cy="-315.2762995894104" fill="" r="5"/>
<circle cx="435.29411764705884" cy="-308.3846050542004" fill="" r="5"/>
<circle cx="437.6470588235294" cy="-301.16584847330785" fill="" r="5"/>
<circle cx="440" cy="-293.77928288742106" fill="" r="5"/>
<circle cx="442.3529411764706" cy="-286.36678133253236" fill="" r="5"/>
<circle cx="444.70588235294116" cy="-279.05089708863864" fill="" r="5"/>
<circle cx="447.05882352941177" cy="-271.9344617690119" fill="" r="5"/>
<circle cx="449.4117647058824" cy="-265.1013513858602" fill="" r="5"/>
<circle cx="451.7647058823529" cy="-258.6180523226127" fill="" r="5"/>
<circle cx="454.11764705882354" cy="-252.53570263978955" fill="" r="5"/>
<circle cx="456.47058823529414" cy="-246.89234795423678" fill="" r="5"/>
<circle cx="458.8235294117647" cy="-241.7152192651871" fill="" r="5"/>
<circle cx="461.1764705882353" cy="-237.02290249540468" fill="" r="5"/>
<circle cx="463.52941176470586" cy="-232.8273211390921" fill="" r="5"/>
<circle cx="465.88235294117646" cy="-229.13549280916382" fill="" r="5"/>
<circle cx="468.2352941176471" cy="-225.95104837625152" fill="" r="5"/>
<circle cx="470.5882352941176" cy="-223.27552057746578" fill="" r="5"/>
<circle cx="472.94117647058823" cy="-221.10941955071655" fill="" r="5"/>
<circle cx="475.29411764705884" cy="-219.45311771078858" fill="" r="5"/>
<circle cx="477.6470588235294" cy="-218.30756739294148" fill="" r="5"/>
<circle cx="480" cy="-217.67487302721074" fill="" r="5"/>
</g>
</g>
<g>
<g>
<line stroke="black" stroke-width="1" x1="0" x2="0" y1="0" y2="10"/>
<line stroke="black" stroke-width="1" x1="94.11764705882354" x2="94.11764705882354" y1="0" y2="10"/>
<line stroke="black" stroke-width="1" x1="188.23529411764707" x2="188.23529411764707" y1="0" y2="10"/>
<line stroke="black" stroke-width="1" x1="282.3529411764706" x2="282.3529411764706" y1="0" y2="10"/>
<line stroke="black" stroke-width="1" x1="376.47058823529414" x2="376.47058823529414" y1="0" y2="10"/>
<line stroke="black" stroke-width="1" x1="470.5882352941176" x2="470.5882352941176" y1="0" y2="10"/>
</g>
<line stroke="black" stroke-width="1" x1="0" x2="480" y1="0" y2="0"/>
<g>
<text font-size="12" text-anchor="middle" x="0" y="20">
1
</text>
<text font-size="12" text-anchor="middle" x="94.11764705882354" y="20">
41
</text>
<text font-size="12" text-anchor="middle" x="188.23529411764707" y="20">
81
</text>
<text font-size="12" text-anchor="middle" x="282.3529411764706" y="20">
121
</text>
<text font-size="12" text-anchor="middle" x="376.47058823529414" y="20">
161
</text>
<text font-size="12" text-anchor="middle" x="470.5882352941176" y="20">
201
</text>
</g>
<text font-size="12" text-anchor="middle" x="240" y="30">
Time
</text>
</g>
<g>
<g>
<line stroke="black" stroke-width="1" x1="0" x2="-10" y1="-72.52367573828165" y2="-72.52367573828165"/>
<line stroke="black" stroke-width="1" x1="0" x2="-10" y1="-146.70859186533445" y2="-146.70859186533445"/>
<line stroke="black" stroke-width="1" x1="0" x2="-10" y1="-220.89350799238724" y2="-220.89350799238724"/>
<line stroke="black" stroke-width="1" x1="0" x2="-10" y1="-295.07842411944006" y2="-295.07842411944006"/>
</g>
<line stroke="black" stroke-width="1" x1="0" x2="0" y1="0" y2="-340"/>
<g>
<text dominant-baseline="middle" font-size="12" text-anchor="end" x="-15" y="-72.52367573828165">
-0.02
</text>
<text dominant-baseline="middle" font-size="12" text-anchor="end" x="-15" y="-146.70859186533445">
0
</text>
<text dominant-baseline="middle" font-size="12" text-anchor="end" x="-15" y="-220.89350799238724">
0.02
</text>
<text dominant-baseline="middle" font-size="12" text-anchor="end" x="-15" y="-295.07842411944006">
0.04
</text>
</g>
<text font-size="12" text-anchor="middle" transform="rotate(-90 -60 -170)" x="-60" y="-182">
Velocity
</text>
</g>
</g>
</svg>